<?xml version="1.0" encoding="UTF-8" standalone="no"?>
<!-- Created with Inkscape (http://www.inkscape.org/) -->
<svg
   xmlns:dc="http://purl.org/dc/elements/1.1/"
   xmlns:cc="http://creativecommons.org/ns#"
   xmlns:rdf="http://www.w3.org/1999/02/22-rdf-syntax-ns#"
   xmlns:svg="http://www.w3.org/2000/svg"
   xmlns="http://www.w3.org/2000/svg"
   xmlns:sodipodi="http://sodipodi.sourceforge.net/DTD/sodipodi-0.dtd"
   xmlns:inkscape="http://www.inkscape.org/namespaces/inkscape"
   width="1052.3622"
   height="744.09448"
   id="svg4465"
   sodipodi:version="0.32"
   inkscape:version="0.46"
   version="1.0"
   sodipodi:docname="elkilogo.svg"
   inkscape:output_extension="org.inkscape.output.svg.inkscape">
  <defs
     id="defs4467">
    <inkscape:perspective
       sodipodi:type="inkscape:persp3d"
       inkscape:vp_x="0 : 526.18109 : 1"
       inkscape:vp_y="0 : 1000 : 0"
       inkscape:vp_z="744.09448 : 526.18109 : 1"
       inkscape:persp3d-origin="372.04724 : 350.78739 : 1"
       id="perspective4473" />
  </defs>
  <sodipodi:namedview
     id="base"
     pagecolor="#ffffff"
     bordercolor="#666666"
     borderopacity="1.0"
     inkscape:pageopacity="0.0"
     inkscape:pageshadow="2"
     inkscape:zoom="0.35"
     inkscape:cx="350"
     inkscape:cy="520"
     inkscape:document-units="px"
     inkscape:current-layer="layer1"
     showgrid="false"
     inkscape:window-width="640"
     inkscape:window-height="667"
     inkscape:window-x="132"
     inkscape:window-y="174" />
  <metadata
     id="metadata4470">
    <rdf:RDF>
      <cc:Work
         rdf:about="">
        <dc:format>image/svg+xml</dc:format>
        <dc:type
           rdf:resource="http://purl.org/dc/dcmitype/StillImage" />
      </cc:Work>
    </rdf:RDF>
  </metadata>
  <g
     inkscape:label="Ebene 1"
     inkscape:groupmode="layer"
     id="layer1">
    <g
       id="g5185"
       transform="matrix(0.8076056,0,0,0.8076056,79.63856,122.72277)">
      <path
         d="M 277.68266,204.77508 C 277.70066,269.76465 228.65415,322.45939 168.14591,322.45939 C 107.63768,322.45939 58.59113,269.76465 58.60917,204.77508 C 58.59117,139.78551 107.63768,87.090774 168.14591,87.090774 C 228.65415,87.090774 277.70069,139.78551 277.68266,204.77508 z"
         id="path2383"
         style="fill:#0072f0;fill-opacity:1;fill-rule:nonzero;stroke:#000000;stroke-width:6.59766245;stroke-linecap:round;stroke-linejoin:round;stroke-miterlimit:4;stroke-dasharray:none;stroke-opacity:1"
         inkscape:connector-curvature="0" />
      <path
         d="M 271.06038,164.41092 C 271.13718,166.21707 271.18538,168.05552 271.18538,169.88192 C 271.18538,234.82429 222.11842,287.52524 161.65413,287.52524 C 114.39196,287.52524 74.06293,255.30417 58.71663,210.22636 C 61.37014,272.64244 109.39026,322.43225 168.15413,322.43225 C 228.61842,322.43225 277.68538,269.73129 277.68538,204.78893 C 277.68538,190.60897 275.34723,177.00292 271.06038,164.41092 L 271.06038,164.41092 z"
         id="path3221"
         style="fill:#0054b4;fill-opacity:1;fill-rule:nonzero;stroke:none"
         inkscape:connector-curvature="0" />
      <path
         inkscape:connector-curvature="0"
         style="fill:none;stroke:#000000;stroke-width:6.59766245;stroke-linecap:round;stroke-linejoin:round;stroke-miterlimit:4;stroke-dasharray:none;stroke-opacity:1"
         id="path14877"
         d="M 277.68266,204.77508 C 277.70066,269.76465 228.65415,322.45939 168.14591,322.45939 C 107.63768,322.45939 58.59113,269.76465 58.60917,204.77508 C 58.59117,139.78551 107.63768,87.090774 168.14591,87.090774 C 228.65415,87.090774 277.70069,139.78551 277.68266,204.77508 z" />
      <path
         d="M 176.32619,323.53369 C 176.32619,333.29774 190.99152,333.60983 209.0613,333.60983 C 227.13108,333.60983 241.79642,334.35469 241.79642,323.53369 C 241.79642,304.50567 227.13108,289.06264 209.0613,289.06264 C 190.99152,289.06264 176.32619,304.50567 176.32619,323.53369 z"
         id="path3172"
         style="fill:#003978;fill-opacity:1;fill-rule:nonzero;stroke:#000000;stroke-width:6.59766245;stroke-linecap:round;stroke-linejoin:round;stroke-miterlimit:4;stroke-dasharray:none;stroke-opacity:1"
         inkscape:connector-curvature="0" />
      <path
         d="M 252.78113,179.13319 C 252.78113,233.48056 197.65994,277.58856 170.94333,277.58856 C 145.22508,277.58856 89.10553,233.48056 89.10553,179.13319 C 89.10553,124.78583 113.73056,80.677828 170.94333,80.677828 C 228.16592,80.677828 252.78113,124.78583 252.78113,179.13319 L 252.78113,179.13319 z"
         id="path3236"
         style="fill:#0054b4;fill-opacity:1;fill-rule:nonzero;stroke:none"
         inkscape:connector-curvature="0" />
      <path
         d="M 221.65173,332.96439 C 221.65173,315.38462 212.2089,304.56629 212.2089,304.56629 C 212.2089,304.56629 215.98603,319.44149 215.35651,332.96439 L 221.65173,332.96439 L 221.65173,332.96439 z"
         id="path3174"
         style="fill:#000000;fill-opacity:0.31372549;fill-rule:evenodd;stroke:#000000;stroke-width:6.59766245;stroke-linecap:butt;stroke-linejoin:round;stroke-miterlimit:4;stroke-dasharray:none;stroke-opacity:1"
         inkscape:connector-curvature="0" />
      <path
         d="M 165.48416,64.829886 C 135.35491,65.564459 114.55249,78.84941 101.85916,99.417716 C 77.79472,96.304462 57.79666,127.83988 57.79666,127.83988 C 57.79666,127.83989 76.68779,139.20432 89.85916,129.68206 C 87.45993,140.16274 86.29666,151.46451 86.29666,163.25481 C 86.29666,217.60218 142.42216,261.71732 168.14041,261.71732 C 194.85702,261.71732 249.98416,217.60218 249.98416,163.25481 C 249.98416,151.46451 248.82027,140.16274 246.42166,129.68206 C 259.59303,139.20432 278.45291,127.83988 278.45291,127.83988 C 278.45291,127.83988 258.48169,96.314365 234.42166,99.417716 C 221.36,78.249976 199.71398,64.829886 168.14041,64.829886 C 167.24646,64.829886 166.36223,64.808516 165.48416,64.829886 L 165.48416,64.829886 z"
         id="path3155-7"
         style="fill:#0072f0;fill-opacity:1;fill-rule:nonzero;stroke:#000000;stroke-width:6.59766245;stroke-linecap:round;stroke-linejoin:round;stroke-miterlimit:4;stroke-dasharray:none;stroke-opacity:1"
         inkscape:connector-curvature="0" />
      <path
         d="M 246.70291,130.9979 L 244.82791,134.19351 C 245.07679,137.89348 245.17166,141.65563 245.17166,145.47216 C 245.17166,199.81954 190.04452,243.93467 163.32791,243.93467 C 142.6221,243.93469 102.23118,215.35533 87.26541,175.84929 C 94.88122,224.26778 144.43731,261.71734 168.14041,261.71733 C 194.85702,261.71733 249.98416,217.60215 249.98416,163.25481 C 249.98416,151.95626 248.90878,141.10626 246.70291,130.9979 L 246.70291,130.9979 z"
         id="path3231"
         style="fill:#0054b4;fill-opacity:1;fill-rule:nonzero;stroke:none"
         inkscape:connector-curvature="0" />
      <path
         inkscape:connector-curvature="0"
         style="fill:none;stroke:#000000;stroke-width:6.59766245;stroke-linecap:round;stroke-linejoin:round;stroke-miterlimit:4;stroke-dasharray:none;stroke-opacity:1"
         id="path14879"
         d="M 165.48416,64.829886 C 135.35491,65.564459 114.55249,78.84941 101.85916,99.417716 C 77.79472,96.304462 57.79666,127.83988 57.79666,127.83988 C 57.79666,127.83989 76.68779,139.20432 89.85916,129.68206 C 87.45993,140.16274 86.29666,151.46451 86.29666,163.25481 C 86.29666,217.60218 142.42216,261.71732 168.14041,261.71732 C 194.85702,261.71732 249.98416,217.60218 249.98416,163.25481 C 249.98416,151.46451 248.82027,140.16274 246.42166,129.68206 C 259.59303,139.20432 278.45291,127.83988 278.45291,127.83988 C 278.45291,127.83988 258.48169,96.314365 234.42166,99.417716 C 221.36,78.249976 199.71398,64.829886 168.14041,64.829886 C 167.24646,64.829886 166.36223,64.808516 165.48416,64.829886 L 165.48416,64.829886 z" />
      <path
         d="M 199.10916,68.864535 C 221.75196,66.319879 233.14945,60.8669 238.60916,55.975794 C 256.36334,40.070638 249.93451,25.31144 260.60916,28.587221 C 271.10916,31.809406 271.08588,44.370472 278.10916,47.920332 C 286.60916,52.216578 276.07203,10.14788 284.60916,13.013326 C 292.60916,15.698481 293.581,37.01331 305.60916,42.550023 C 316.10916,47.383301 299.00014,-7.4826815 313.60916,4.4208328 C 328.10916,16.235512 348.60916,63.494226 314.60916,76.382967 C 280.60916,89.27171 230.16249,93.016813 213.60916,92.493895 C 196.60916,91.956865 180.94927,70.905392 199.10916,68.864535 L 199.10916,68.864535 z"
         id="path2399"
         style="fill:#003978;fill-opacity:1;fill-rule:evenodd;stroke:#000000;stroke-width:7.42237043;stroke-linecap:butt;stroke-linejoin:round;stroke-miterlimit:4;stroke-dasharray:none;stroke-opacity:1"
         inkscape:connector-curvature="0" />
      <path
         d="M 164.51638,139.82627 C 164.52038,153.27239 154.37255,164.17474 141.85361,164.17474 C 129.33466,164.17474 119.1871,153.27239 119.19083,139.82627 C 119.18683,126.38016 129.33466,115.47781 141.85361,115.47781 C 154.37255,115.47781 164.52011,126.38016 164.51638,139.82627 z"
         id="path3157"
         style="fill:#ffffff;fill-opacity:1;fill-rule:nonzero;stroke:#000000;stroke-width:6.59766245;stroke-linecap:round;stroke-linejoin:round;stroke-miterlimit:4;stroke-dasharray:none;stroke-opacity:1"
         inkscape:connector-curvature="0" />
      <path
         d="M 217.24858,139.82627 C 217.25258,153.27239 207.10475,164.17474 194.58581,164.17474 C 182.06686,164.17474 171.9193,153.27239 171.92303,139.82627 C 171.91903,126.38016 182.06686,115.47781 194.58581,115.47781 C 207.10475,115.47781 217.25231,126.38016 217.24858,139.82627 z"
         id="path3159"
         style="fill:#ffffff;fill-opacity:1;fill-rule:nonzero;stroke:#000000;stroke-width:6.59766245;stroke-linecap:round;stroke-linejoin:round;stroke-miterlimit:4;stroke-dasharray:none;stroke-opacity:1"
         inkscape:connector-curvature="0" />
      <path
         d="M 196.78912,144.12252 C 196.79012,148.60455 193.40785,152.23867 189.23487,152.23867 C 185.06189,152.23867 181.67937,148.60455 181.68062,144.12252 C 181.67962,139.64048 185.06189,136.00636 189.23487,136.00636 C 193.40785,136.00636 196.79037,139.64048 196.78912,144.12252 z"
         id="path3161"
         style="fill:#000000;fill-opacity:1;fill-rule:nonzero;stroke:none"
         inkscape:connector-curvature="0" />
      <path
         d="M 154.75878,144.12252 C 154.75978,148.60455 151.37751,152.23867 147.20453,152.23867 C 143.03155,152.23867 139.64903,148.60455 139.65028,144.12252 C 139.64928,139.64048 143.03155,136.00636 147.20453,136.00636 C 151.37751,136.00636 154.76003,139.64048 154.75878,144.12252 z"
         id="path3163"
         style="fill:#000000;fill-opacity:1;fill-rule:nonzero;stroke:none"
         inkscape:connector-curvature="0" />
      <path
         d="M 161.32838,323.53369 C 161.32838,333.29774 146.66305,333.60983 128.59327,333.60983 C 110.52349,333.60983 95.85815,334.35469 95.85815,323.53369 C 95.85815,304.50567 110.52349,289.06264 128.59327,289.06264 C 146.66305,289.06264 161.32838,304.50567 161.32838,323.53369 z"
         id="path3329"
         style="fill:#003978;fill-opacity:1;fill-rule:nonzero;stroke:#000000;stroke-width:6.59766245;stroke-linecap:round;stroke-linejoin:round;stroke-miterlimit:4;stroke-dasharray:none;stroke-opacity:1"
         inkscape:connector-curvature="0" />
      <path
         d="M 116.00284,332.96439 C 116.00284,315.38462 125.44567,304.56629 125.44567,304.56629 C 125.44567,304.56629 121.66854,319.44149 122.29806,332.96439 L 116.00284,332.96439 z"
         id="path3331"
         style="fill:#000000;fill-opacity:0.31372549;fill-rule:evenodd;stroke:#000000;stroke-width:6.59766245;stroke-linecap:butt;stroke-linejoin:round;stroke-miterlimit:4;stroke-dasharray:none;stroke-opacity:1"
         inkscape:connector-curvature="0" />
      <path
         d="M 188.51509,219.97264 C 185.49733,225.58946 179.95924,228.22675 176.14674,225.86259 C 172.33421,223.49841 171.69165,217.02841 174.71166,211.413 C 177.72943,205.79616 183.26752,203.15887 187.08004,205.52303 C 190.89255,207.88721 191.53511,214.35721 188.51509,219.97264 z"
         id="path2398"
         style="fill:#000000;fill-opacity:1;fill-rule:nonzero;stroke:none"
         inkscape:connector-curvature="0" />
      <path
         d="M 147.47582,219.64796 C 150.63858,225.53467 156.44279,228.2987 160.43848,225.82093 C 164.4342,223.34315 165.10764,216.56225 161.94252,210.67701 C 158.77974,204.79029 152.97553,202.02626 148.97982,204.50403 C 144.98412,206.98181 144.31068,213.76271 147.47582,219.64796 z"
         id="path2412"
         style="fill:#000000;fill-opacity:1;fill-rule:nonzero;stroke:none"
         inkscape:connector-curvature="0" />
      <path
         d="M 136.51216,68.864535 C 113.86936,66.319879 102.47187,60.8669 97.01216,55.975794 C 79.25798,40.070638 85.68681,25.31144 75.01216,28.587221 C 64.51216,31.809406 64.53544,44.370472 57.51216,47.920332 C 49.01216,52.216578 59.54929,10.14788 51.01216,13.013326 C 43.01216,15.698481 42.04032,37.01331 30.01216,42.550023 C 19.51216,47.383301 36.62118,-7.4826815 22.01216,4.4208328 C 7.51216,16.235512 -12.98784,63.494226 21.01216,76.382967 C 55.01216,89.27171 105.45883,93.016813 122.01216,92.493895 C 139.01216,91.956865 154.67205,70.905392 136.51216,68.864535 L 136.51216,68.864535 z"
         id="path3171"
         style="fill:#003978;fill-opacity:1;fill-rule:evenodd;stroke:#000000;stroke-width:7.42237043;stroke-linecap:butt;stroke-linejoin:round;stroke-miterlimit:4;stroke-dasharray:none;stroke-opacity:1"
         inkscape:connector-curvature="0" />
    </g>
    <g
       transform="matrix(1.6519216,0,0,1.9400721,-128.08044,-128.49866)"
       id="g5588">
      <text
         xml:space="preserve"
         style="font-size:40px;font-style:normal;font-variant:normal;font-weight:normal;font-stretch:normal;text-align:start;line-height:100%;writing-mode:lr-tb;text-anchor:start;fill:#000000;fill-opacity:1;stroke:none;display:inline;font-family:LMU CompatilFact;-inkscape-font-specification:LMU CompatilFact"
         x="111.65639"
         y="172.99467"
         id="text28014-6"
         sodipodi:linespacing="100%"><tspan
           id="tspan5228-8"
           sodipodi:role="line"
           x="111.65639"
           y="172.99467" /><tspan
           id="tspan5507"
           sodipodi:role="line"
           x="111.65639"
           y="212.99467" /><tspan
           id="tspan5510"
           sodipodi:role="line"
           x="111.65639"
           y="252.99467" /><tspan
           id="tspan5513"
           sodipodi:role="line"
           x="111.65639"
           y="292.99469">Supported by <tspan
   id="tspan7928-4"
   style="font-weight:bold">I</tspan>ndex-Structures</tspan><tspan
           id="tspan7667-6"
           sodipodi:role="line"
           x="111.65639"
           y="332.99469" /></text>
      <text
         sodipodi:linespacing="100%"
         id="text5397"
         y="172.99464"
         x="355.383"
         style="font-size:40px;font-style:normal;font-variant:normal;font-weight:normal;font-stretch:normal;text-align:start;line-height:100%;writing-mode:lr-tb;text-anchor:start;fill:#000000;fill-opacity:1;stroke:none;display:inline;font-family:LMU CompatilFact;-inkscape-font-specification:LMU CompatilFact"
         xml:space="preserve"><tspan
           y="172.99464"
           x="355.383"
           sodipodi:role="line"
           id="tspan5399" /><tspan
           y="212.99464"
           x="355.383"
           sodipodi:role="line"
           id="tspan5403" /><tspan
           y="252.99464"
           x="355.383"
           sodipodi:role="line"
           id="tspan5411"><tspan
   style="font-weight:bold"
   id="tspan5409">K</tspan>DD-Applications</tspan><tspan
           y="292.99463"
           x="355.383"
           sodipodi:role="line"
           id="tspan5415" /></text>
      <text
         xml:space="preserve"
         style="font-size:40px;font-style:normal;font-variant:normal;font-weight:normal;font-stretch:normal;text-align:start;line-height:100%;writing-mode:lr-tb;text-anchor:start;fill:#000000;fill-opacity:1;stroke:none;display:inline;font-family:LMU CompatilFact;-inkscape-font-specification:LMU CompatilFact"
         x="268.41174"
         y="172.99464"
         id="text5417"
         sodipodi:linespacing="100%"><tspan
           id="tspan5419"
           sodipodi:role="line"
           x="268.41174"
           y="172.99464" /><tspan
           id="tspan5435"
           sodipodi:role="line"
           x="268.41174"
           y="212.99464">Deve<tspan
   id="tspan5425"
   style="font-weight:bold">L</tspan>oping</tspan></text>
      <text
         sodipodi:linespacing="100%"
         id="text5437"
         y="172.99464"
         x="357.64526"
         style="font-size:40px;font-style:normal;font-variant:normal;font-weight:normal;font-stretch:normal;text-align:start;line-height:100%;writing-mode:lr-tb;text-anchor:start;fill:#000000;fill-opacity:1;stroke:none;display:inline;font-family:LMU CompatilFact;-inkscape-font-specification:LMU CompatilFact"
         xml:space="preserve"><tspan
           y="172.99464"
           x="357.64526"
           sodipodi:role="line"
           id="tspan5455"><tspan
   style="font-weight:bold"
   id="tspan5441">E</tspan>nvironment for</tspan></text>
      <text
         sodipodi:linespacing="125%"
         id="text5516"
         y="102.71767"
         x="301.13132"
         style="font-size:20px;font-style:normal;font-variant:normal;font-weight:normal;font-stretch:normal;text-align:center;line-height:125%;letter-spacing:0px;word-spacing:0px;text-anchor:middle;fill:#000000;fill-opacity:1;stroke:none;font-family:Times New Roman;-inkscape-font-specification:Times New Roman"
         xml:space="preserve"><tspan
           y="102.71767"
           x="301.13132"
           id="tspan5518"
           sodipodi:role="line" /></text>
      <text
         xml:space="preserve"
         style="font-size:40px;font-style:normal;font-variant:normal;font-weight:normal;font-stretch:normal;text-align:start;line-height:100%;writing-mode:lr-tb;text-anchor:start;fill:#ff0000;fill-opacity:1;stroke:none;display:inline;font-family:LMU CompatilFact;-inkscape-font-specification:LMU CompatilFact"
         x="370.29004"
         y="172.99464"
         id="text5520"
         sodipodi:linespacing="100%"><tspan
           style="font-weight:bold;text-align:center;text-anchor:middle;fill:#ff0000;-inkscape-font-specification:LMU CompatilFact Bold"
           id="tspan5522"
           sodipodi:role="line"
           x="370.29004"
           y="172.99464">E</tspan><tspan
           style="font-weight:bold;text-align:center;text-anchor:middle;fill:#ff0000;-inkscape-font-specification:LMU CompatilFact Bold"
           id="tspan5526"
           sodipodi:role="line"
           x="370.29004"
           y="212.99464">L</tspan><tspan
           style="font-weight:bold;text-align:center;text-anchor:middle;fill:#ff0000;-inkscape-font-specification:LMU CompatilFact Bold"
           id="tspan5528"
           sodipodi:role="line"
           x="370.29004"
           y="252.99464">K</tspan><tspan
           style="font-weight:bold;text-align:center;text-anchor:middle;fill:#ff0000;-inkscape-font-specification:LMU CompatilFact Bold"
           id="tspan5530"
           sodipodi:role="line"
           x="370.29004"
           y="292.99463">I</tspan></text>
    </g>
  </g>
</svg>
